<?xml version="1.0" encoding="UTF-8"?><svg id="a" xmlns="http://www.w3.org/2000/svg" viewBox="0 0 2398.12 1647.99"><defs><style>.b{fill:#ffca10;opacity:.5;}.b,.c,.d,.e,.f,.g,.h,.i,.j{isolation:isolate;}.c{fill:#bf2026;opacity:.9;}.d{fill:#ce4b27;opacity:.7;}.e{fill:#d8db23;}.e,.g,.h{opacity:.4;}.f{fill:#c77a29;opacity:.6;}.g{fill:#e5e652;}.k{fill:#ed2024;}.h{fill:lime;}.l{font-family:FreestyleScript-Regular, Freestyle Script;font-size:268.38px;}.i{fill:#f47527;opacity:.7;}.j{fill:#e82825;opacity:.8;}.m{fill:red;}</style></defs><path class="i" d="M1099.06,213.39c33.21-.59,66.14,.18,98.75,2.25L1287.63,3.83c-61.84-4.97-124.62-5.16-187.95-.26l-42.78,211.32c13.99-.73,28.05-1.24,42.16-1.49h0Z"/><path class="f" d="M931.32,234.42l36.39-209.41c-4.35,.91-8.7,1.84-13.04,2.79-51.16,11.27-100.94,25.67-149.2,42.94l5.3,192.2c39.41-11.5,79.62-21.05,120.54-28.53h0Z"/><path class="b" d="M698.62,301.76l-5.09-184.56c-45.13,21.41-88.66,45.47-130.47,71.93l36.5,157.69c32.26-16.44,65.3-31.48,99.06-45.05h0Z"/><path class="d" d="M1464.68,256.5l127.45-195.85c-65.06-21.62-132.08-37.77-200.48-48.05l-83.17,212.47c53.12,7.05,105.26,17.6,156.21,31.43h-.01Z"/><path class="c" d="M1993.11,555.68l165.76-107.31c-51.33-61.16-107.8-117.02-168.53-166.98l-149.96,150.24c53.9,37.24,104.96,78.74,152.73,124.05h0Z"/><path class="g" d="M496.7,405.62l-33.79-145.99c-34.15,26.63-66.88,54.99-98.09,84.93l52.95,115.72c25.6-19.21,51.92-37.45,78.93-54.66Z"/><path class="j" d="M1739.28,368.67l157.21-157.5c-61.73-41.87-126.93-78.09-194.85-108.17l-123.83,190.29c55.71,21.21,109.65,46.44,161.47,75.38h0Z"/><path class="e" d="M280.15,433.9c-24.28,28.18-47.37,57.41-69.22,87.61-23.98,33.15-46.47,67.47-67.38,102.82l43.58,59.28c24.7-30.69,50.71-60.2,77.96-88.42,19.87-20.58,40.41-40.48,61.56-59.66l-46.5-101.63h0Z"/><path class="h" d="M97.78,708.39c-18.15,36.35-34.71,73.6-49.61,111.65-10.02,25.58-19.27,51.53-27.76,77.79l20.15,11.41c11.24-21.84,23.04-43.33,35.4-64.42,19.92-33.99,41.27-66.97,63.96-98.86l-42.14-37.57h0Z"/><path class="k" d="M2357.14,755.76c-45.26-86.35-111.81-192.01-111.81-192.01-4.94-7.41-9.95-14.74-15.02-22.03l-154.48,100.01c46.77,53.33,89.44,110.76,127.46,171.74,21,33.67,40.58,68.43,58.64,104.18l117.03-43.89,19.16-17.72c-.48-17.51-17.99-56.4-40.98-100.27h0Z"/><path d="M1246.12,1018.97l1026.7-175.58c29-4.96,29.49-47.85,.59-51.03l-1023.4-112.58c-63.1-6.95-126.87,22.7-163.2,77.98-18.49,28.13-29.48,61.7-29.89,97.48-.41,35.78,9.82,68.69,27.68,95.71,35.1,53.09,98.23,78.84,161.53,68h0Zm-115.31-163.12c-1-50.56,39.83-93.17,89.19-93.07,44.7,.09,80.69,36.3,81.6,82.09,1,50.56-39.83,93.17-89.19,93.07-44.7-.09-80.69-36.3-81.59-82.1h0Z"/><text class="l" transform="translate(22.74 1560.19) scale(1.57 1)"><tspan x="0" y="0">Zero to One Hundred</tspan></text><g><path class="m" d="M663.93,1153.61c0,5.94-1.56,11.25-4.68,15.96-3.12,4.71-7.43,8.9-12.93,12.58-5.5,3.68-11.92,6.96-19.26,9.82-7.34,2.87-15.41,5.52-24.21,7.98,4.03,.82,8.8,2.1,14.31,3.84,5.5,1.74,10.81,4.14,15.96,7.21,5.13,3.07,9.44,7.01,12.93,11.81,3.48,4.81,5.23,10.69,5.23,17.64,0,9.21-3.49,17.7-10.45,25.47-6.97,7.78-17.33,14.48-31.09,20.1-13.76,5.63-30.63,10.03-50.62,13.2-20,3.17-43.01,4.76-69.05,4.76h-163.41l74.28-194.86h144.71c14.31,0,28.52,.57,42.64,1.69,14.12,1.13,26.77,3.33,37.97,6.6,11.18,3.27,20.26,7.82,27.24,13.66,6.96,5.83,10.45,13.35,10.45,22.55Zm-189.27,131.03c11,0,20.17-1.74,27.51-5.22,7.33-3.48,13.39-7.77,18.16-12.89,4.76-5.11,8.16-10.48,10.18-16.11,2.01-5.62,3.03-10.59,3.03-14.88,0-7.16-2.67-12.83-7.98-17.03-5.32-4.19-13.85-6.29-25.58-6.29h-20.36l-26.96,72.42h22.01Zm39.62-93.9c8.06,0,14.94-1.33,20.63-3.99,5.68-2.66,10.36-5.98,14.03-9.97,3.66-3.99,6.41-8.29,8.25-12.89,1.83-4.6,2.75-8.75,2.75-12.43,0-5.93-2.48-10.99-7.43-15.19-4.95-4.19-12.75-6.29-23.38-6.29h-16.51l-23.66,60.76h25.31Z"/><path class="m" d="M743.16,1109.11h231.64l-8.8,23.32h-112.24l-23.11,59.22h94.09l-8.8,23.01h-94.09l-25.31,65.67h112.24l-8.25,23.63h-231.64l74.28-194.86Z"/><path class="m" d="M1238.9,1303.97h-128.75l-61.07-140.85-53.92,140.85h-49.52l74.28-194.86h131.5l57.77,142.69,54.47-142.69h50.62l-75.38,194.86Z"/><path class="m" d="M1593.24,1303.97h-128.75l-61.07-140.85-53.92,140.85h-49.52l74.28-194.86h131.5l57.77,142.69,54.47-142.69h50.62l-75.38,194.86Z"/><path class="m" d="M1868.35,1230.32l-28.06,73.65h-119.4l30.26-78.86-53.92-115.99h132.05l37.42,77.02,82.53-77.02h59.42l-140.31,121.21Z"/></g></svg>